<svg width="100%" viewBox="0 0 680 770" role="img"
    xmlns="http://www.w3.org/2000/svg">
    <title>Featured Projects</title>
    <desc>BoniFit and Personal Portfolio project cards</desc>
    <rect width="680" height="770" rx="12" fill="#0d1117"/>
    <text x="340" y="40" text-anchor="middle" fill="#F85D3B" font-family="monospace" font-size="18" font-weight="700">🚀 Featured Projects</text>
    <rect x="16" y="60" width="648" height="250" rx="12" fill="#0d1117" stroke="#21262d" stroke-width="1"/>
    <text x="46" y="100" font-family="monospace" font-size="20">🔥</text>
    <text x="76" y="100" fill="#e6edf3" font-family="monospace" font-size="16" font-weight="600">BoniFit</text>
    <rect x="148" y="84" width="32" height="18" rx="9" fill="#F85D3B"/>
    <text x="164" y="97" text-anchor="middle" fill="white" font-family="monospace" font-size="10" font-weight="600">TFG</text>
    <line x1="32" y1="110" x2="648" y2="110" stroke="#21262d" stroke-width="1"/>
    <text x="32" y="130" fill="#8b949e" font-family="monospace" font-size="12">Fullstack fitness mobile app built as final project. React Native frontend</text>
    <text x="32" y="148" fill="#8b949e" font-family="monospace" font-size="12">with JWT auth, AI chatbot (Groq API) and APK generation via EAS Build.</text>
    <text x="32" y="166" fill="#8b949e" font-family="monospace" font-size="12">Node.js + Express backend on Render with PostgreSQL (Supabase) and Cloudinary.</text>
    <rect x="32" y="180" width="100" height="20" rx="10" fill="#1a0a05" stroke="#F85D3B" stroke-width="1"/>
    <text x="82" y="194" text-anchor="middle" fill="#F85D3B" font-family="monospace" font-size="11">React Native</text>
    <rect x="140" y="180" width="44" height="20" rx="10" fill="#1a0a05" stroke="#F85D3B" stroke-width="1"/>
    <text x="162" y="194" text-anchor="middle" fill="#F85D3B" font-family="monospace" font-size="11">Expo</text>
    <rect x="192" y="180" width="84" height="20" rx="10" fill="#1a0a05" stroke="#F85D3B" stroke-width="1"/>
    <text x="234" y="194" text-anchor="middle" fill="#F85D3B" font-family="monospace" font-size="11">TypeScript</text>
    <rect x="284" y="180" width="64" height="20" rx="10" fill="#1a0810" stroke="#E040A0" stroke-width="1"/>
    <text x="316" y="194" text-anchor="middle" fill="#E040A0" font-family="monospace" font-size="11">Node.js</text>
    <rect x="356" y="180" width="76" height="20" rx="10" fill="#1a0810" stroke="#E040A0" stroke-width="1"/>
    <text x="394" y="194" text-anchor="middle" fill="#E040A0" font-family="monospace" font-size="11">Express.js</text>
    <rect x="32" y="208" width="36" height="20" rx="10" fill="#1a0810" stroke="#E040A0" stroke-width="1"/>
    <text x="50" y="222" text-anchor="middle" fill="#E040A0" font-family="monospace" font-size="11">JWT</text>
    <rect x="76" y="208" width="56" height="20" rx="10" fill="#1a0810" stroke="#E040A0" stroke-width="1"/>
    <text x="104" y="222" text-anchor="middle" fill="#E040A0" font-family="monospace" font-size="11">BCrypt</text>
   <rect x="140" y="208" width="90" height="20" rx="10" fill="#110a1a" stroke="#A855F7" stroke-width="1"/>
    <text x="185" y="222" text-anchor="middle" fill="#A855F7" font-family="monospace" font-size="11">PostgreSQL</text>
    <rect x="238" y="208" width="60" height="20" rx="10" fill="#110a1a" stroke="#A855F7" stroke-width="1"/>
    <text x="268" y="222" text-anchor="middle" fill="#A855F7" font-family="monospace" font-size="11">Groq AI</text>
    <rect x="306" y="208" width="76" height="20" rx="10" fill="#110a1a" stroke="#A855F7" stroke-width="1"/>
    <text x="344" y="222" text-anchor="middle" fill="#A855F7" font-family="monospace" font-size="11">Cloudinary</text>
    <rect x="390" y="208" width="52" height="20" rx="10" fill="#0a0714" stroke="#7C3AED" stroke-width="1"/>
    <text x="416" y="222" text-anchor="middle" fill="#7C3AED" font-family="monospace" font-size="11">Render</text>
    <rect x="450" y="208" width="44" height="20" rx="10" fill="#0a0714" stroke="#7C3AED" stroke-width="1"/>
    <text x="472" y="222" text-anchor="middle" fill="#7C3AED" font-family="monospace" font-size="11">Aiven</text>
    <rect x="502" y="208" width="68" height="20" rx="10" fill="#0a0714" stroke="#7C3AED" stroke-width="1"/>
    <text x="536" y="222" text-anchor="middle" fill="#7C3AED" font-family="monospace" font-size="11">EAS Build</text>
    <rect x="16" y="326" width="648" height="180" rx="12" fill="#0d1117" stroke="#21262d" stroke-width="1"/>
    <text x="46" y="366" font-family="monospace" font-size="20">🌐</text>
    <text x="76" y="366" fill="#e6edf3" font-family="monospace" font-size="16" font-weight="600">Personal Portfolio</text>
    <rect x="270" y="350" width="36" height="18" rx="9" fill="#27c93f"/>
    <text x="288" y="363" text-anchor="middle" fill="white" font-family="monospace" font-size="10" font-weight="600">LIVE</text>
    <line x1="32" y1="376" x2="648" y2="376" stroke="#21262d" stroke-width="1"/>
    <text x="32" y="396" fill="#8b949e" font-family="monospace" font-size="12">Personal developer portfolio built with React, TypeScript, Vite,</text>
    <text x="32" y="414" fill="#8b949e" font-family="monospace" font-size="12">Tailwind CSS and React Bits. Deployed on Vercel. Available in</text>
    <text x="32" y="432" fill="#8b949e" font-family="monospace" font-size="12">Spanish and English with projects, experience and certifications.</text>
    <rect x="32" y="450" width="52" height="20" rx="10" fill="#1a0a05" stroke="#F85D3B" stroke-width="1"/>
    <text x="58" y="464" text-anchor="middle" fill="#F85D3B" font-family="monospace" font-size="11">React</text>
    <rect x="92" y="450" width="84" height="20" rx="10" fill="#1a0a05" stroke="#F85D3B" stroke-width="1"/>
    <text x="134" y="464" text-anchor="middle" fill="#F85D3B" font-family="monospace" font-size="11">TypeScript</text>
    <rect x="184" y="450" width="36" height="20" rx="10" fill="#1a0810" stroke="#E040A0" stroke-width="1"/>
    <text x="202" y="464" text-anchor="middle" fill="#E040A0" font-family="monospace" font-size="11">Vite</text>
    <rect x="228" y="450" width="88" height="20" rx="10" fill="#1a0810" stroke="#E040A0" stroke-width="1"/>
    <text x="272" y="464" text-anchor="middle" fill="#E040A0" font-family="monospace" font-size="11">Tailwind CSS</text>
    <rect x="324" y="450" width="76" height="20" rx="10" fill="#110a1a" stroke="#A855F7" stroke-width="1"/>
    <text x="362" y="464" text-anchor="middle" fill="#A855F7" font-family="monospace" font-size="11">React Bits</text>
    <rect x="408" y="450" width="56" height="20" rx="10" fill="#0a0714" stroke="#7C3AED" stroke-width="1"/>
    <text x="436" y="464" text-anchor="middle" fill="#7C3AED" font-family="monospace" font-size="11">Vercel</text>
    <rect x="16" y="522" width="648" height="230" rx="12" fill="#0d1117" stroke="#21262d" stroke-width="1"/>
    <text x="46" y="562" font-family="monospace" font-size="20">💅</text>
    <text x="76" y="562" fill="#e6edf3" font-family="monospace" font-size="16" font-weight="600">María Fornet</text>
    <rect x="196" y="546" width="36" height="18" rx="9" fill="#27c93f"/>
    <text x="214" y="559" text-anchor="middle" fill="white" font-family="monospace" font-size="10" font-weight="600">LIVE</text>
    <line x1="32" y1="572" x2="648" y2="572" stroke="#21262d" stroke-width="1"/>
   <text x="32" y="592" fill="#8b949e" font-family="monospace" font-size="12">One-page professional website for María Fornet Centro de Estética in Dos Hermanas.</text>
    <text x="32" y="610" fill="#8b949e" font-family="monospace" font-size="12">Full service catalogue with prices, packages and vouchers, direct WhatsApp booking,</text>
    <text x="32" y="628" fill="#8b949e" font-family="monospace" font-size="12">real Google reviews, photo carousel, splash screen, scroll animations, responsive.</text>
    <rect x="32" y="646" width="86" height="20" rx="10" fill="#1a0a05" stroke="#F85D3B" stroke-width="1"/>
    <text x="75" y="660" text-anchor="middle" fill="#F85D3B" font-family="monospace" font-size="11">Angular 17</text>
    <rect x="182" y="646" width="84" height="20" rx="10" fill="#1a0a05" stroke="#F85D3B" stroke-width="1"/>
    <text x="224" y="660" text-anchor="middle" fill="#F85D3B" font-family="monospace" font-size="11">TypeScript</text>
    <rect x="330" y="646" width="40" height="20" rx="10" fill="#1a0a05" stroke="#F85D3B" stroke-width="1"/>
    <text x="350" y="660" text-anchor="middle" fill="#F85D3B" font-family="monospace" font-size="11">HTML</text>
    <rect x="434" y="646" width="36" height="20" rx="10" fill="#1a0a05" stroke="#F85D3B" stroke-width="1"/>
    <text x="452" y="660" text-anchor="middle" fill="#F85D3B" font-family="monospace" font-size="11">CSS</text>
    <rect x="534" y="646" width="88" height="20" rx="10" fill="#1a0a05" stroke="#F85D3B" stroke-width="1"/>
    <text x="578" y="660" text-anchor="middle" fill="#F85D3B" font-family="monospace" font-size="11">Tailwind CSS</text>
    <rect x="32" y="674" width="40" height="20" rx="10" fill="#1a0810" stroke="#E040A0" stroke-width="1"/>
    <text x="52" y="688" text-anchor="middle" fill="#E040A0" font-family="monospace" font-size="11">GSAP</text>
    <rect x="144" y="674" width="70" height="20" rx="10" fill="#1a0810" stroke="#E040A0" stroke-width="1"/>
    <text x="179" y="688" text-anchor="middle" fill="#E040A0" font-family="monospace" font-size="11">Swiper.js</text>
    <rect x="286" y="674" width="64" height="20" rx="10" fill="#1a0810" stroke="#E040A0" stroke-width="1"/>
    <text x="318" y="688" text-anchor="middle" fill="#E040A0" font-family="monospace" font-size="11">Node.js</text>
    <rect x="422" y="674" width="60" height="20" rx="10" fill="#1a0810" stroke="#E040A0" stroke-width="1"/>
    <text x="452" y="688" text-anchor="middle" fill="#E040A0" font-family="monospace" font-size="11">Express</text>
    <rect x="554" y="674" width="66" height="20" rx="10" fill="#110a1a" stroke="#A855F7" stroke-width="1"/>
    <text x="587" y="688" text-anchor="middle" fill="#A855F7" font-family="monospace" font-size="11">Supabase</text>
    <rect x="32" y="702" width="56" height="20" rx="10" fill="#0a0714" stroke="#7C3AED" stroke-width="1"/>
    <text x="60" y="716" text-anchor="middle" fill="#7C3AED" font-family="monospace" font-size="11">Vercel</text>
    <rect x="118" y="702" width="52" height="20" rx="10" fill="#0a0714" stroke="#7C3AED" stroke-width="1"/>
    <text x="144" y="716" text-anchor="middle" fill="#7C3AED" font-family="monospace" font-size="11">Render</text>
    <rect x="200" y="702" width="76" height="20" rx="10" fill="#0a0714" stroke="#7C3AED" stroke-width="1"/>
    <text x="238" y="716" text-anchor="middle" fill="#7C3AED" font-family="monospace" font-size="11">Namecheap</text>
</svg>
